Coordinates
version=1
nRows=16
nColumns=40
inDegrees=yes

Units are S.I. units (second, meters, Newtons, ...)
If the header above contains a line with 'inDegrees', this indicates whether rotational values are in degrees (yes) or radians (no).

endheader
time	pelvis_tilt	pelvis_list	pelvis_rotation	pelvis_tx	pelvis_ty	pelvis_tz	hip_flexion_r	hip_adduction_r	hip_rotation_r	knee_angle_r	knee_angle_r_beta	ankle_angle_r	subtalar_angle_r	mtp_angle_r	hip_flexion_l	hip_adduction_l	hip_rotation_l	knee_angle_l	knee_angle_l_beta	ankle_angle_l	subtalar_angle_l	mtp_angle_l	lumbar_extension	lumbar_bending	lumbar_rotation	arm_flex_r	arm_add_r	arm_rot_r	elbow_flex_r	pro_sup_r	wrist_flex_r	wrist_dev_r	arm_flex_l	arm_add_l	arm_rot_l	elbow_flex_l	pro_sup_l	wrist_flex_l	wrist_dev_l
      0.00000000	     -5.23390588	     10.61046006	      1.90379354	     -0.60229893	      0.90114906	      0.20269233	     34.60828244	    -15.37459010	    -16.49853054	      7.27349698	      0.12694647	      2.70058170	     11.08467416	      0.00000000	    -11.69376137	      9.01490623	    -19.78085882	     11.01060200	      0.19217126	      5.19068350	     17.09040487	      0.00000000	      2.74370630	    -10.00255807	      6.57361933	     43.23531336	    -16.32856802	     43.23531336	     75.82441225	     44.97388071	      0.00000000	      0.00000000	     43.23531336	    -16.32856802	     43.23531336	     75.82441225	     44.97388071	      0.00000000	      0.00000000
      0.00500000	     -5.31243776	     10.63977556	      1.93351076	     -0.59836702	      0.90051347	      0.20299854	     34.67033931	    -15.35932939	    -16.48749981	      7.26916936	      0.12687094	      2.69373175	     11.08492826	      0.00000000	    -11.85215974	      8.98499864	    -19.76989029	     11.04674144	      0.19280201	      5.18019703	     17.08956626	      0.00000000	      2.74240992	    -10.00061994	      6.57266930	     43.23532477	    -16.32855394	     43.23532477	     75.82439533	     44.97388217	      0.00000000	      0.00000000	     43.23532477	    -16.32855394	     43.23532477	     75.82439533	     44.97388217	      0.00000000	      0.00000000
      0.01000000	     -5.29987718	     10.61668120	      2.02907602	     -0.59395043	      0.89999667	      0.20326850	     34.64352767	    -15.34253779	    -16.34357252	      7.40481487	      0.12923840	      2.57489750	     11.05713822	      0.00000000	    -12.09806374	      8.85647758	    -19.57590414	     11.19607224	      0.19540832	      5.01459658	     17.10121244	      0.00000000	      2.84532701	     -9.95719930	      6.56179490	     43.23550720	    -16.32832703	     43.23550720	     75.82411966	     44.97390640	      0.00000000	      0.00000000	     43.23550720	    -16.32832703	     43.23550720	     75.82411966	     44.97390640	      0.00000000	      0.00000000
      0.01500000	     -5.19207837	     10.36609426	      2.53198138	     -0.58872684	      0.89998859	      0.20248947	     34.29445657	    -15.37901039	    -16.80799815	      7.54628489	      0.13170752	      2.54068584	     10.30453206	      0.00000000	    -12.51515037	      8.45096516	    -19.01011393	     11.29758480	      0.19718005	      4.64781340	     16.92953429	      0.00000000	      2.60876211	     -9.34883605	      6.21467544	     43.23910039	    -16.32385857	     43.23910039	     75.81869651	     44.97438054	      0.00000000	      0.00000000	     43.23910039	    -16.32385857	     43.23910039	     75.81869651	     44.97438054	      0.00000000	      0.00000000
      0.02000000	     -5.22693980	     10.34908214	      2.61033239	     -0.58314070	      0.89929863	      0.20285795	     34.27425657	    -15.34028837	    -16.66338479	      7.65697715	      0.13363946	      2.41242003	     10.30629114	      0.00000000	    -12.78053702	      8.32011622	    -18.89219696	     11.42464400	      0.19939765	      4.51744702	     16.92634846	      0.00000000	      2.66488719	     -9.31893666	      6.19855282	     43.23926518	    -16.32365389	     43.23926518	     75.81844871	     44.97440205	      0.00000000	      0.00000000	     43.23926518	    -16.32365389	     43.23926518	     75.81844871	     44.97440205	      0.00000000	      0.00000000
      0.02500000	     -4.82728821	      9.70516306	      3.20388643	     -0.57679379	      0.90000911	      0.20185051	     33.23395475	    -14.97624720	    -17.25574595	      7.33204919	      0.12796840	      1.91814443	      9.45196230	      0.00000000	    -13.51271476	      7.41194439	    -18.36971969	     11.59657527	      0.20239842	      4.07123931	     16.81172985	      0.00000000	      2.06211104	     -8.35747789	      5.22089180	     43.24888913	    -16.31171347	     43.24888913	     75.80403925	     44.97563619	      0.00000000	      0.00000000	     43.24888913	    -16.31171347	     43.24888913	     75.80403925	     44.97563619	      0.00000000	      0.00000000
      0.03000000	     -4.82339208	      9.65326576	      3.30587052	     -0.57038409	      0.89936157	      0.20222656	     33.20959202	    -14.93686391	    -17.20843675	      7.65645823	      0.13363041	      1.67106229	      9.16314129	      0.00000000	    -13.81381567	      7.20660948	    -18.27699288	     11.81663433	      0.20623918	      3.68677629	     16.73937914	      0.00000000	      2.07704374	     -8.22985059	      5.10881756	     43.24972876	    -16.31067405	     43.24972876	     75.80279153	     44.97574104	      0.00000000	      0.00000000	     43.24972876	    -16.31067405	     43.24972876	     75.80279153	     44.97574104	      0.00000000	      0.00000000
      0.03500000	     -4.80091745	      9.54813483	      3.43676154	     -0.56361359	      0.89877231	      0.20255568	     33.14330300	    -14.86419349	    -17.17731194	      8.04201988	      0.14035973	      1.42437141	      8.73891442	      0.00000000	    -14.13645553	      6.93097965	    -18.15241761	     12.06727102	      0.21061361	      3.26800340	     16.63481498	      0.00000000	      2.04677526	     -8.01862000	      4.94134721	     43.25063045	    -16.30955816	     43.25063045	     75.80145301	     44.97585321	      0.00000000	      0.00000000	     43.25063045	    -16.30955816	     43.25063045	     75.80145301	     44.97585321	      0.00000000	      0.00000000
      0.04000000	     -4.82710573	      9.48559950	      3.52754994	     -0.55647809	      0.89803241	      0.20310904	     33.05597386	    -14.77329910	    -16.92770515	      8.28221692	      0.14455195	      1.24663135	      8.69686865	      0.00000000	    -14.45004035	      6.71558837	    -17.94178698	     12.26983418	      0.21414901	      3.06896048	     16.62523570	      0.00000000	      2.13739456	     -7.96161832	      4.90534274	     43.25080481	    -16.30934252	     43.25080481	     75.80119464	     44.97587481	      0.00000000	      0.00000000	     43.25080481	    -16.30934252	     43.25080481	     75.80119464	     44.97587481	      0.00000000	      0.00000000
      0.04500000	     -4.29556691	      8.54707488	      4.13950271	     -0.54887584	      0.89903660	      0.20212984	     31.77340947	    -14.06092507	    -17.46056570	      8.03949945	      0.14031574	      0.51285427	      7.00795737	      0.00000000	    -15.20720849	      5.37992415	    -17.65705467	     12.71398499	      0.22190090	      2.43761131	     16.48339931	      0.00000000	      1.46025450	     -6.77825518	      3.45228189	     43.26169004	    -16.29589914	     43.26169004	     75.78515159	     44.97719428	      0.00000000	      0.00000000	     43.26169004	    -16.29589914	     43.26169004	     75.78515159	     44.97719428	      0.00000000	      0.00000000
      0.05000000	     -4.26626091	      8.43446264	      4.17484091	     -0.54145467	      0.89847821	      0.20278241	     31.73151101	    -13.93017996	    -17.33611613	      8.55626250	      0.14933495	      0.06809110	      6.69397464	      0.00000000	    -15.50939640	      5.09345216	    -17.60417362	     13.03939795	      0.22758043	      1.82690954	     16.24592444	      0.00000000	      1.42584465	     -6.54175201	      3.27189546	     43.26253052	    -16.29486364	     43.26253052	     75.78392297	     44.97729325	      0.00000000	      0.00000000	     43.26253052	    -16.29486364	     43.26253052	     75.78392297	     44.97729325	      0.00000000	      0.00000000
      0.05500000	     -4.19006362	      8.25035696	      4.22521381	     -0.53382134	      0.89804961	      0.20340848	     31.61635664	    -13.74728793	    -17.23925134	      9.13421048	      0.15942205	     -0.40088762	      6.27143321	      0.00000000	    -15.83979186	      4.71233347	    -17.58329158	     13.40426810	      0.23394861	      1.16713178	     15.93115759	      0.00000000	      1.38529948	     -6.27586772	      3.07973173	     43.26330263	    -16.29391270	     43.26330263	     75.78279553	     44.97738382	      0.00000000	      0.00000000	     43.26330263	    -16.29391270	     43.26330263	     75.78279553	     44.97738382	      0.00000000	      0.00000000
      0.06000000	     -4.08312936	      7.99277560	      4.25431154	     -0.52608925	      0.89776964	      0.20413244	     31.45410558	    -13.47449157	    -17.17425157	      9.73340868	      0.16988003	     -0.88281257	      5.74173663	      0.00000000	    -16.16722052	      4.25056638	    -17.55203381	     13.82650505	      0.24131804	      0.46614405	     15.56010114	      0.00000000	      1.27797644	     -5.92742722	      2.83151172	     43.26422240	    -16.29278022	     43.26422240	     75.78145387	     44.97749130	      0.00000000	      0.00000000	     43.26422240	    -16.29278022	     43.26422240	     75.78145387	     44.97749130	      0.00000000	      0.00000000
      0.06500000	     -3.94258054	      7.70626028	      4.27110122	     -0.51830117	      0.89761387	      0.20488637	     31.24725597	    -13.17232500	    -17.07693452	     10.34429536	      0.18054201	     -1.44742762	      5.23320137	      0.00000000	    -16.49901658	      3.75255624	    -17.56953571	     14.28863601	      0.24938374	     -0.31173796	     15.13358217	      0.00000000	      1.16727161	     -5.54159702	      2.56725509	     43.26506681	    -16.29174088	     43.26506681	     75.78022351	     44.97758959	      0.00000000	      0.00000000	     43.26506681	    -16.29174088	     43.26506681	     75.78022351	     44.97758959	      0.00000000	      0.00000000
      0.07000000	     -3.38356091	      6.53899437	      4.74106275	     -0.51011973	      0.89880530	      0.20443932	     29.86027646	    -12.03843236	    -17.23812896	      9.94787946	      0.17362325	     -2.44660100	      3.66843576	      0.00000000	    -17.09334031	      2.11106265	    -17.60617789	     15.03427936	      0.26239768	     -0.91850841	     15.07107682	      0.00000000	      0.56330738	     -4.11314142	      1.25802791	     43.27428605	    -16.28041401	     43.27428605	     75.76687582	     44.97863817	      0.00000000	      0.00000000	     43.27428605	    -16.28041401	     43.27428605	     75.76687582	     44.97863817	      0.00000000	      0.00000000
      0.07500000	     -3.23348657	      6.31580396	      4.62391896	     -0.50228023	      0.89873908	      0.20556913	     29.72569115	    -11.74917301	    -17.05407768	     10.66989648	      0.18622482	     -3.08916667	      3.40629731	      0.00000000	    -17.39174481	      1.70503851	    -17.70335516	     15.54176358	      0.27125495	     -1.91716677	     14.53542742	      0.00000000	      0.49164348	     -3.84489178	      1.07057451	     43.27496870	    -16.27957694	     43.27496870	     75.76589396	     44.97871405	      0.00000000	      0.00000000	     43.27496870	    -16.27957694	     43.27496870	     75.76589396	     44.97871405	      0.00000000	      0.00000000
